<svg width="1050" height="617" viewBox="0 0 1050 617" fill="none" xmlns="http://www.w3.org/2000/svg">
<g clip-path="url(#clip0_92_93)">
<g filter="url(#filter0_d_92_93)">
<path d="M189.84 442.16C178.4 442.16 167.48 440.253 157.08 436.44C146.68 432.627 138.187 426.56 131.6 418.24C125.013 409.92 121.72 399.347 121.72 386.52C121.72 383.4 122.413 380.627 123.8 378.2C125.533 375.427 127.093 374.04 128.48 374.04C131.253 374.04 132.64 378.2 132.64 386.52C132.64 398.307 137.667 407.493 147.72 414.08C155.693 419.28 166.44 421.88 179.96 421.88C193.48 421.88 207.52 419.453 222.08 414.6C236.64 409.747 250.507 402.813 263.68 393.8C279.28 383.4 296.613 368.493 315.68 349.08C335.093 329.32 355.2 307.827 376 284.6C359.36 282.867 342.72 280.96 326.08 278.88C309.787 276.8 293.32 275.76 276.68 275.76C265.587 275.76 254.493 276.973 243.4 279.4C232.307 281.48 222.253 285.64 213.24 291.88C204.227 298.12 197.467 307.307 192.96 319.44C192.613 320.827 192.093 322.387 191.4 324.12C191.053 325.853 190.88 327.587 190.88 329.32C190.88 332.787 191.747 335.907 193.48 338.68C194.173 340.76 194.52 341.973 194.52 342.32C194.52 345.44 193.133 347 190.36 347C187.933 347 186.027 345.787 184.64 343.36C181.173 337.12 179.44 329.147 179.44 319.44C179.44 301.067 182.733 287.027 189.32 277.32C196.253 267.613 205.44 261.027 216.88 257.56C228.32 254.093 240.627 252.36 253.8 252.36C259.693 252.36 265.76 252.707 272 253.4C278.587 253.747 285 254.267 291.24 254.96C306.493 256.347 322.267 258.773 338.56 262.24C354.853 265.36 371.147 268.653 387.44 272.12C405.467 250.973 423.147 229.653 440.48 208.16C458.16 186.667 474.627 166.387 489.88 147.32C505.133 127.907 518.133 111.267 528.88 97.4C529.227 96.36 529.92 95.6667 530.96 95.32C531.653 94.6266 532.173 94.28 532.52 94.28C536.333 92.2 541.187 90.4667 547.08 89.08C552.973 87.3467 556.96 86.48 559.04 86.48C562.507 86.48 564.24 88.3867 564.24 92.2C564.24 93.24 563.373 95.1467 561.64 97.92C544.307 127.387 529.4 157.547 516.92 188.4C504.787 219.253 494.04 250.973 484.68 283.56L483.64 287.2C485.72 287.2 487.8 287.373 489.88 287.72C492.307 287.72 494.387 287.72 496.12 287.72C511.027 288.76 523.68 287.2 534.08 283.04C541.707 280.267 546.907 276.28 549.68 271.08C550.72 269.693 551.587 269 552.28 269C554.013 269 555.227 270.04 555.92 272.12C556.613 273.853 556.44 275.587 555.4 277.32C551.587 283.907 544.827 288.76 535.12 291.88C529.573 294.307 523.16 295.867 515.88 296.56C508.947 297.253 501.667 297.427 494.04 297.08H490.92L484.68 296.56H481.56C476.36 315.627 472.72 335.387 470.64 355.84C470.293 357.573 470.12 359.307 470.12 361.04C470.12 362.427 470.12 363.987 470.12 365.72C470.12 385.48 475.493 395.36 486.24 395.36C493.173 395.36 501.32 392.24 510.68 386C520.387 379.76 530.093 372.133 539.8 363.12C549.853 354.107 558.867 345.267 566.84 336.6C574.813 327.587 580.707 320.48 584.52 315.28C585.213 314.587 586.253 314.24 587.64 314.24C591.107 314.24 592.147 316.147 590.76 319.96C590.067 321 587.12 325.16 581.92 332.44C576.72 339.373 569.613 347.867 560.6 357.92C551.587 367.627 541.013 377.333 528.88 387.04C519.173 394.667 509.467 399.52 499.76 401.6C490.4 404.027 483.293 405.24 478.44 405.24C468.733 405.24 460.933 400.907 455.04 392.24C449.493 383.227 446.72 371.787 446.72 357.92C446.72 347.867 447.76 337.467 449.84 326.72C451.92 315.973 454.347 305.227 457.12 294.48C447.067 293.44 436.84 292.4 426.44 291.36C416.04 289.973 405.64 288.587 395.24 287.2C374.44 312.507 353.64 336.253 332.84 358.44C312.387 380.28 293.147 397.96 275.12 411.48C261.6 421.187 247.56 428.64 233 433.84C218.787 439.387 204.4 442.16 189.84 442.16ZM459.2 284.6C465.44 260.333 472.72 236.067 481.04 211.8C489.707 187.187 498.2 164.827 506.52 144.72L509.12 138.48C494.213 159.28 477.747 181.467 459.72 205.04C442.04 228.613 424.013 252.013 405.64 275.24C414.653 276.973 423.667 278.707 432.68 280.44C441.693 281.827 450.533 283.213 459.2 284.6Z" fill="#4D7C9C"/>
<path d="M600.473 309.5V388.875H644.598V399H589.098V309.5H600.473ZM671.335 309.5V399H659.71V309.5H671.335ZM729.14 363.875V399H717.765V363.875L683.265 309.5H697.265L723.64 353.125L749.14 309.5H762.765L729.14 363.875ZM821.799 372.125H787.299L777.799 399H765.674L797.549 309.5H812.299L843.674 399H831.049L821.799 372.125ZM818.549 362.5L804.799 321.875L790.174 362.5H818.549ZM924.708 309.5V399H911.958L865.583 326.375V399H854.833V309.5H867.208L913.958 382.625V309.5H924.708Z" fill="#486B7F"/>
</g>
<g filter="url(#filter1_d_92_93)">
<path d="M128 388H920.5C925.747 388 930 392.253 930 397.5V397.5C930 402.747 925.747 407 920.5 407H128V388Z" fill="#4D7C9C"/>
</g>
</g>
<defs>
<filter id="filter0_d_92_93" x="121.72" y="76.48" width="812.988" height="365.68" filterUnits="userSpaceOnUse" color-interpolation-filters="sRGB">
<feFlood flood-opacity="0" result="BackgroundImageFix"/>
<feColorMatrix in="SourceAlpha" type="matrix" values="0 0 0 0 0 0 0 0 0 0 0 0 0 0 0 0 0 0 127 0" result="hardAlpha"/>
<feOffset dx="6" dy="-6"/>
<feGaussianBlur stdDeviation="2"/>
<feComposite in2="hardAlpha" operator="out"/>
<feColorMatrix type="matrix" values="0 0 0 0 1 0 0 0 0 1 0 0 0 0 1 0 0 0 1 0"/>
<feBlend mode="normal" in2="BackgroundImageFix" result="effect1_dropShadow_92_93"/>
<feBlend mode="normal" in="SourceGraphic" in2="effect1_dropShadow_92_93" result="shape"/>
</filter>
<filter id="filter1_d_92_93" x="128" y="378" width="812" height="29" filterUnits="userSpaceOnUse" color-interpolation-filters="sRGB">
<feFlood flood-opacity="0" result="BackgroundImageFix"/>
<feColorMatrix in="SourceAlpha" type="matrix" values="0 0 0 0 0 0 0 0 0 0 0 0 0 0 0 0 0 0 127 0" result="hardAlpha"/>
<feOffset dx="6" dy="-6"/>
<feGaussianBlur stdDeviation="2"/>
<feComposite in2="hardAlpha" operator="out"/>
<feColorMatrix type="matrix" values="0 0 0 0 1 0 0 0 0 1 0 0 0 0 1 0 0 0 1 0"/>
<feBlend mode="normal" in2="BackgroundImageFix" result="effect1_dropShadow_92_93"/>
<feBlend mode="normal" in="SourceGraphic" in2="effect1_dropShadow_92_93" result="shape"/>
</filter>
<clipPath id="clip0_92_93">
<rect width="1050" height="617" fill="white"/>
</clipPath>
</defs>
</svg>
